<?xml version="1.0" encoding="UTF-8"?>
<!DOCTYPE svg PUBLIC "-//W3C//DTD SVG 1.1//EN" "http://www.w3.org/Graphics/SVG/1.1/DTD/svg11.dtd">
<!-- Creator: CorelDRAW 2020 (64-Bit) -->
<svg xmlns="http://www.w3.org/2000/svg" xml:space="preserve" width="20in" height="11.25in" version="1.1" style="shape-rendering:geometricPrecision; text-rendering:geometricPrecision; image-rendering:optimizeQuality; fill-rule:evenodd; clip-rule:evenodd"
viewBox="0 0 19999.99 11249.99"
 xmlns:xlink="http://www.w3.org/1999/xlink"
 xmlns:xodm="http://www.corel.com/coreldraw/odm/2003">
 <defs>
  <style type="text/css">
   <![CDATA[
    .fil2 {fill:#96989A}
    .fil1 {fill:#4B4B4D}
    .fil0 {fill:#D83337}
   ]]>
  </style>
 </defs>
 <g id="Layer_x0020_1">
  <metadata id="CorelCorpID_0Corel-Layer"/>
  <g id="_2434990892560">
   <g id="LOGO.cdr">
    <path class="fil0" d="M2331.5 4145.12c-1026.63,0 -1858.87,832.24 -1858.87,1858.87 0,1026.63 832.24,1858.87 1858.87,1858.87 1026.63,0 1858.87,-832.25 1858.87,-1858.87 0,-1026.63 -832.24,-1858.87 -1858.87,-1858.87zm24.01 3207.45c-20.53,0 -84.43,-51.6 -103.97,-68.02 -15.37,-12.91 -35.45,-30.51 -42.91,-48.89 -7.76,-19.1 38.78,-139.58 52.34,-174.11l9.35 -25.04 36.43 34.01c37.31,33.22 67.48,46.97 82.71,59.8 39.72,33.48 28.3,56.61 20.81,100.13 -4.54,26.42 -26.81,122.13 -54.76,122.13zm232.63 -80.25l-90.78 -58.28c-20.78,-13.59 -73.04,-51.11 -73.04,-79.28 0,-15.24 6.97,-36.47 10.88,-49.72l22.58 -67.5c5.77,-14.78 9.64,-28.6 17.31,-43.3 1.86,-3.57 3.16,-5.54 5.41,-9.33 3.18,-5.38 2.78,-5.35 7.72,-8.66 17.12,3.98 108.67,67.87 123.58,79.54 10.98,8.59 28.18,23.28 34.7,34.09 6.31,10.46 5.1,11.73 3.78,25.43 -0.78,8.15 -3.36,20.37 -5.52,28.9 -9.67,38.28 -31.52,108.67 -53.14,141.76 -2.71,4.15 -2.02,0.89 -3.48,6.35zm-1616.95 -2328.75c20.19,0 23.95,0.76 37.18,8.69 32.56,19.52 49.84,49.93 44.48,92.57 -2.87,22.78 -16.54,46.85 -33.45,59.93 -6.56,5.08 -11.94,10.76 -19.53,14.87 -12.83,6.95 -28,13.91 -45.06,13.91 -30.51,0 -49.15,-31.17 -49.15,-62.23 0,-34.01 11.58,-74.22 26.73,-101.02 7.73,-13.68 58.65,-123.76 63.76,-127.92 3.04,-2.47 12.71,-7.96 12.71,2.94 0,12.67 -13.02,38.12 -17.55,49.59l-20.13 48.67zm553.73 -139.2c0,-42.52 10.96,-105.56 18.46,-148.58 0.77,-4.39 2.14,-9.92 2.71,-15.31 6.66,-63.24 46.65,7.09 54.66,25.85 35.56,83.3 61.22,166.36 87.78,252.88l17.28 58.07c2.81,10.95 5.15,18.69 8.22,29.45l80.55 296.14c5.45,21.44 9.53,41 14.15,62.82l13.36 61.98c5.44,20.99 7.99,41.48 12.32,63.02 8.44,42.01 15.28,86.18 22.63,128.05 16.17,92.22 27.53,185.23 49.56,271.44 8.7,34.06 19.26,67.96 31.85,100.81 8.53,22.25 17.26,44.39 28.44,64.91l21.13 37.84c22.95,38.46 51.87,74.96 88.65,99.72 31.05,20.91 59.75,29.13 100.28,29.13 0,-20.04 -6.1,-40.11 -6.58,-60.56 -0.54,-22.53 -4.88,-38.92 -4.88,-62.26 0,-16.63 -5.66,-63.77 13.1,-73.7 11.05,7.39 12.89,18.87 17.09,33.69 7.83,27.67 11.19,57.98 14.33,87.22 0.7,6.54 2.18,14.24 2.99,21.57 0.79,7.14 1.75,17.31 2.78,23.43 3.13,18.69 1.2,26.85 9.04,26.37 4.6,-0.28 7.68,-1.43 11.36,-2.04 38.13,-6.43 80.66,-21.72 113.89,-38.46 11.94,-6.02 22.56,-11.15 33.39,-17.39l62.5 -39.06c25.89,-17.25 66.34,-45.08 77.76,-74.69 4.52,-11.71 -4.94,-26.2 -9.48,-36.79 -1.83,-4.26 -2.78,-5.01 -4.6,-8.51 -1.83,-3.54 -1.91,-5.12 -4.07,-9.03 -20.89,-37.77 -45.3,-72.91 -71.16,-107.37l-43.48 -58.06c-7.26,-10.6 -14.18,-18.37 -21.62,-29.15 -20.87,-30.24 -43.2,-58.54 -62.2,-90.12 -19.66,-32.67 -36.19,-65.39 -52.35,-99.97l-28.85 -72.7c-3.99,-12.06 -9.16,-25.98 -12.7,-38.07 -4.33,-14.8 2.62,-10.25 -12.21,-14 -7.28,-1.84 -12.37,-5.33 -17.47,-8.74 0,-18.43 2.48,-37.09 4.45,-52.87 4.47,-35.76 7.62,-123.48 21.76,-150.2 6.33,1.69 9.19,6.72 13.52,11.06 30.57,30.64 63.13,58.16 97.67,84.15 29.02,21.83 101.79,73.24 101.79,106.23 0,18.9 -28.1,14.74 -40.96,14.74 -10.95,0 -41.14,-3.5 -47.51,-6.55 1.69,7.25 101.19,154.41 111.41,168.67 6.46,9.01 11.65,18.1 18.49,27.37 3.57,4.83 5.67,8.92 9.02,13.91 22.2,33.1 44.18,65.65 63.13,100.66 23.76,43.9 40.11,90.88 47.72,140.63 2.22,14.55 -0.63,31.54 1.58,45.91 4.03,26.23 -4.73,77.58 -11.22,103.16 -10.29,40.47 -27.65,79.26 -48.96,114.82 -16.9,28.19 -44.63,71.97 -70.41,93.38l-50.53 42.83c-5.15,4.14 -8.64,6.46 -14.07,10.5 -15.8,11.78 -92.78,64 -118.41,69.97 4.11,17.63 37.21,77.71 45.15,90.79l26.27 42.52c5.07,7.61 9.14,13.05 14.08,20.32 42.37,62.38 113.31,116.59 191.36,116.59 51.07,0 44.55,6.96 41.25,-19.94l-6.94 -81.5c-4.05,-51.63 -4.82,-109.9 -4.82,-163.86 0,-38.22 30.76,-74.76 35.93,-17.9 1.15,12.61 0.54,27.66 1.99,40.59 1.24,11.1 2.66,27.49 3.04,39.54 0.8,25.63 6.42,52.58 8.13,78.67 0.91,13.84 3.27,24.57 5.07,37.51l8.37 55.5c0.8,5.71 2.87,13.67 3,19.93 25.08,0 84.51,-27.48 108.06,-41.01 20.15,-11.57 40.71,-26.19 57.82,-42.1l74.46 -76.23 32.33 -41.37c4.21,-5.55 7.01,-9.84 11,-15.21 3.72,-5.02 6.33,-9.44 9.89,-14.68 37.62,-55.39 71.98,-112.83 102.92,-172.24 17.13,-32.9 33.78,-65.8 48.66,-100.39 12.36,-28.75 27.27,-56.87 37.94,-86.53 2.22,-6.16 5.04,-12.1 7.85,-18.35l14.13 -35.01c2.67,-6.3 4.15,-11.28 6.78,-17.78 27.02,-66.83 49.63,-134.89 71.58,-203.57 8.1,-25.33 16.63,-52.31 22.33,-79.21 2.91,-13.74 5.74,-29.27 6.95,-43.82 -11.36,-7.6 -13.78,-13.13 -29.24,-18.26 -45.72,-15.15 -114.58,-2.81 -154.25,11.69 -3.11,1.14 -6.72,2.08 -9.78,3.33l-20.24 9.25c-4.21,1.96 -6.32,2.31 -10.4,4.35 -24.62,12.3 -46.91,28.17 -70.65,42.37 -44.93,26.89 -117.3,66.54 -165.48,35.4 -26.96,-17.42 -44.81,-43.03 -59.85,-71.19l-8.73 -17.48c-14.76,-29.42 -24.88,-64.66 -32.66,-98.37 -10.55,-45.75 -11.09,-97.23 -4.63,-144.18 5.28,-38.38 16.54,-84.27 36.41,-115.91 13.12,-20.9 27.69,-39.03 48.81,-52.74 56.86,-36.91 137.92,-20 198.92,2.3 4.37,1.6 7.38,2.3 12.02,4.35 8.15,3.6 15,6 23.31,9.45 15.88,6.59 28.67,14.35 42.76,22.76 61.19,36.46 106.96,87.46 146,145.56l12.56 20.2c0.98,1.63 1.98,3.68 2.88,5.31l8.76 15.8c4.31,7.2 7.23,14.06 11.07,21.69l29.91 66.72c3.39,8.51 6.14,15.63 9.06,23.7 5.54,15.35 10.94,31.17 16.41,47.46 12.06,35.93 17.79,70.83 23.87,107.15 10.68,63.71 4.15,100.99 -9.45,163.19 -9.06,41.42 -22.65,82.58 -33.95,123.28l-12.41 40c-2.43,7.44 -3.94,12.29 -6.33,19.87 -15,47.71 -38.98,116.44 -59.14,163.6 -1.44,3.37 -2.46,5.54 -3.91,9.19l-63.81 145.83 -63.36 120.08c-3.38,6.2 -6.39,10.33 -9.78,16.43 -3.74,6.74 -6.07,10 -9.85,16.35 -41.48,69.72 -91.72,134.5 -148.96,191.72l-20.5 18.81c-2.59,2.41 -3.89,4.21 -6.55,6.56l-14.19 12.02c-44.31,34.81 -89.57,63.25 -144.54,78.23 -5,1.36 -6.33,0.75 -10.41,2.7 0.46,5.57 7.8,24.15 10.04,30.91 14.33,43.24 39.7,105.19 72.27,137.37 14.56,14.4 29.28,27.79 47.16,38.02 8.03,4.6 20.16,8.28 31.15,9.8 13.76,1.9 23.3,1.19 36.91,-2.26 24.43,-6.2 47.18,-20.98 66.47,-36.73l11.62 -9.67c52.14,-45.93 91.33,-113.72 119.17,-175.66 26.41,-58.76 51.49,-122.69 66.87,-185.35l32.04 -113.72c1.87,-6.93 2.58,-10.58 4.53,-16.76l9.3 -33.28c8.2,-33.43 18.91,-65.34 27.26,-98.85 9.43,-37.86 22.47,-75.78 32.08,-113.69l23.1 -83.35c3.01,-9.53 5.99,-21.67 8.65,-32.3l19.2 -64.33c3.46,-9.6 7.16,-22 11.29,-31.29 20.78,-46.74 23.45,-61.71 51.3,-117.39 4.87,-9.74 8.69,-17.59 13.63,-27.32 11.61,-22.87 25.75,-44.02 38.77,-66.05l25.21 -37.03c6.38,-8.48 11.81,-16.22 18.27,-24.31 24.57,-30.76 51.95,-61.46 83.06,-85.65l49.54 -35.63c8.43,-5.45 16.86,-10.21 26.2,-14.74 53.72,-26.09 112.52,-40.05 171.71,-20.33 38.52,12.83 72.18,35.73 93.71,71.73 22.2,37.11 32.4,78.08 44.36,119.42 2.94,10.15 25.07,97.39 -16.52,65.65 -1.15,-0.87 -1.59,-1.24 -2.71,-2.2 -62.99,-54.36 -120.8,-63.27 -199.17,-33.2 -43.27,16.6 -82.51,38.58 -116.61,70.12l-24.82 25.95c-36.9,41.75 -62.46,82.53 -88.08,133.04l-36.59 81.33c-6.45,16.17 -12.6,31.46 -19.21,47.94 -16.73,41.68 -27.89,84.54 -43.76,126.57 -3.05,8.07 -5.82,17.64 -8.3,26.1l-53.15 182.69c-2.68,9.88 -4.63,17.19 -7.45,26.94l-81.97 291.44c-10.14,29.93 -16.94,60.15 -28.18,89.74 -18.63,49.05 -27.22,81.42 -59.64,127.08 -4.87,6.86 -8.66,11.78 -14.04,18.71l-15.63 17.13c-77.99,74.64 -198.83,78.69 -290.12,23.41 -16.57,-10.03 -34.3,-20.02 -48.42,-33.48 -4.26,-4.07 -6.47,-4.93 -10.68,-8.98 -58.94,-56.72 -91.07,-122.64 -118.29,-199.46 -6.27,-17.7 -14.61,-36.5 -18.88,-54.82 -53.44,0 -116.44,-31.54 -156.76,-64.38 -5.19,-4.22 -9.11,-7.82 -14.31,-11.9l-8.95 -7.43c-30.8,-28.69 -60.03,-59.35 -85.37,-93.16 -46.29,-61.76 -84.47,-128.8 -117.52,-198.59 -1.86,-3.93 -0.87,-1.52 -2.29,-4.26 -0.89,-1.72 -1.7,-3.57 -2.6,-5.59l-16.81 -38.88c-5.6,-12.59 -8.55,-29.17 -14.77,-40.91 -9.85,4.72 -38.81,8.19 -54.06,8.19 -24.85,0 -45.77,-3.96 -65.74,-11.26l-53.34 -25.29c-15.2,-9.1 -57.98,-40.82 -70.27,-55.85l-55.07 -69.41c-4.24,-6.55 -7.73,-12.41 -11.67,-19.45 -3.94,-7.04 -6.77,-13.41 -10.41,-20.7 -2.19,-4.39 -2.98,-7.08 -5.02,-11.36l-23.13 -55.49c-5.97,-15.98 -10.09,-29.56 -15.74,-46.49l-44.15 -158.94 -25.12 -115.72c-1.73,-8.71 -4.65,-19.34 -5.32,-27.43l-7.25 25.51c-5.08,26.47 -13.57,53.23 -23.4,78.14 -22.71,57.56 -38.08,84.25 -71.87,131.22 -19.03,26.46 -39.25,50.95 -60.15,75.8l-16.33 18.07c-16.65,17.09 -31.24,36.39 -48.3,53.25l-29.41 29.57c-0.44,0.49 -2.26,2.56 -2.31,2.61l-2.49 2.42c-12.15,11.23 -22.19,21.76 -33.79,33.36 -12.03,12.02 -23.19,21.53 -35.2,33.6l-17.2 15.55c-3.76,3.5 -5.29,3.84 -9.05,7.33 -49.18,45.74 -105.93,91.39 -161.59,128.34l-148.9 86.98c-24.12,10.85 -48.15,21.29 -73.46,29.73 -67.34,22.47 -159.83,37.37 -218.87,-6.79 -15.45,-11.55 -21.98,-18.28 -34.35,-32.81 -5.24,-6.16 -9.87,-13.09 -14.14,-20.26 -13.4,-22.49 -23.09,-44.48 -32,-69.55 -1.59,-4.48 -2.26,-8.1 -3.72,-12.66 -25.58,-79.96 -25.64,-172.26 -21.1,-257.33 1.85,-34.69 6.86,-68.52 11.73,-102.91 10.08,-71.13 33.93,-145.22 57.85,-212.38 10.87,-30.51 25.39,-59.88 37.85,-89.89 17.28,-41.59 70.84,-151.84 96.02,-188.97 3.99,-5.88 7.38,-10.46 12.36,-15.49 3.5,-3.54 7.33,-7.91 12.11,-9.3 30.1,-8.76 -9.74,86.14 -11.9,91.4 -4.67,11.38 -10.28,22.97 -15.45,35.32 -5.39,12.86 -10.06,24.62 -15.49,36.92l-40.7 100.15c-1.36,3.57 -2.18,6.73 -3.29,9.82 -17.95,49.98 -39.39,103.04 -51.41,154.95 -1.46,6.32 -4.25,13.51 -5.71,20.49 -1.76,8.42 -3.61,13.22 -5.2,21l-17 86.19c-8.19,49.2 -13.47,118.18 5.37,165.91 8.13,20.59 19.44,34.89 34.01,49.52 10.5,10.54 22.53,19.13 35.87,26.38l14.21 7.08c36.89,17.72 70.87,18.49 109.93,9.4l89.9 -32.96c49.29,-19.63 91.7,-42.95 138.22,-66.54 35.26,-17.87 68.74,-40.2 101.15,-62.65l92.48 -71.31c7.45,-5.55 15.75,-11.98 22.74,-18.21l146.66 -139.98c17.17,-17.07 40.93,-47.37 56.39,-66.45 24.48,-30.23 46.92,-62.39 68,-95.79l29.49 -50.77c12.93,-21.25 23.28,-45.5 33.66,-67.96 4.56,-9.86 -9.25,-72.78 -11.5,-87.48 -24.67,-161.25 -49.13,-205.67 -91.63,-358.76 -5.65,-20.35 -11.91,-42.36 -18.27,-63.62 -3.41,-11.41 -5.83,-21.53 -9.02,-31.92 -1.64,-5.34 -3.58,-10.07 -4.7,-14.95 -5.58,-24.2 -16.17,-55.53 -23.74,-79.44l-47.72 -157c-1.67,-5.57 -2.64,-10.87 -4.11,-15.55 -6.87,-21.98 -19.87,-62.39 -19.87,-83.31zm1648.07 -162.13c-22.85,12.09 -65.94,30.48 -92.29,43.67l-34.2 16.57c-4.24,2.32 -7.65,3.52 -12.23,5.79 -50.02,24.82 -124.39,60.15 -170.23,85.31l-168.32 88.85c-4.14,2.23 -7.24,3.5 -10.95,5.43l-210.62 116.99c-7.81,4.62 -14.34,8.36 -21.99,12.4 0,-11.17 0.72,-21.39 1.89,-32.5 0.88,-8.39 3.03,-22.18 3.03,-31.36 5.71,-1.33 16.35,-8.48 21.38,-11.38l375.07 -204.79 322.73 -157.22c0,21.19 -3.28,39.37 -3.28,62.23zm-381.71 885.98c0,18.33 -0.72,34.56 14.89,40.8 23.19,9.26 41.58,-1.98 64.44,-15.54 14.8,-8.78 27.82,-15.83 42.59,-24.56 22.13,-13.09 43.44,-24.51 67.4,-34.16 4.66,-1.88 7.3,-2.77 11.91,-4.47 3.16,-1.17 10.41,-3.23 13.37,-4.65 -3.7,-5.05 -70.66,-30.98 -79.19,-33.83 -63.96,-21.4 -135.42,25.78 -135.42,76.41zm-1766.03 -476.56c-14.18,-26.79 -44.18,-50.77 -77,-50.77 -8.13,0 -14.39,27.24 -13.91,35.63 0.57,10.23 9.2,32.4 15.13,36.87 5.83,4.4 12.41,2.22 19.98,1.11 15.43,-2.25 27.17,-2.45 41.41,-11.02 5.78,-3.48 10.89,-6.62 14.38,-11.83z"/>
    <g>
     <g>
      <path class="fil1" d="M4958.97 5696.42c4.65,23 16.28,42.63 35.66,58.91 7.49,5.94 16.02,10.34 25.58,13.18 9.56,2.84 19.38,4.91 29.2,6.2 9.82,1.29 19.64,1.81 29.2,1.81 10.08,0 19.12,0 27.13,0l125.84 0c8.01,0 16.8,0 26.35,0 10.08,0 20.16,-0.52 30.24,-1.81 10.33,-1.29 20.15,-3.36 29.72,-6.2 9.56,-2.84 18.09,-7.24 25.58,-13.18 9.05,-8.01 16.8,-17.05 22.74,-26.87 6.2,-9.82 10.34,-20.67 12.92,-32.04l0 -819.92 303.88 0 0 728.18c0,28.17 -0.78,54.52 -2.58,79.07 -1.81,24.55 -4.91,47.54 -9.56,68.99 -4.39,21.45 -11.11,41.6 -19.64,60.47 -8.53,18.86 -19.64,36.43 -33.33,53.23 -31.26,39.54 -71.83,67.7 -121.96,83.98 -49.87,16.28 -106.46,24.55 -169.51,24.55l-314.74 0c-63.05,0 -119.64,-8.27 -169.26,-24.55 -49.61,-16.28 -90.44,-44.45 -122.22,-83.98 -13.7,-16.8 -24.55,-34.37 -32.82,-53.23 -8.53,-18.87 -14.99,-39.02 -19.9,-60.47 -4.65,-21.45 -8.01,-44.44 -9.82,-68.99 -1.81,-24.55 -2.58,-50.91 -2.58,-79.07l0 -516.29 303.88 0 0 608.02zm54.26 -904.41l0 -181.4 303.89 0 0 181.4 -303.89 0zm1779.11 903.9l-1037.75 0 0 -207.76 191.74 0 -160.47 -877.54 304.14 0 159.95 871.34c16.02,-3.62 31.26,-9.3 45.22,-17.31 14.21,-8.27 27.13,-19.9 38.76,-35.66 9.04,-12.15 16.28,-24.81 21.45,-37.73 5.43,-13.18 9.3,-26.61 12.14,-40.31 2.84,-13.44 4.65,-27.13 5.43,-40.31 0.78,-13.44 1.03,-26.35 1.03,-38.24l0 -663.32 303.89 0 0 742.14c0,19.64 -0.78,41.34 -2.59,65.12 -1.81,23.52 -6.2,47.55 -13.18,71.83l130.24 0 135.15 0c-7.24,-27.39 -11.63,-57.11 -13.7,-89.41 -2.07,-32.3 -3.1,-66.67 -3.1,-102.85 0,-29.72 0.52,-59.95 1.81,-90.44 1.29,-30.49 4.91,-60.46 11.11,-89.67 5.94,-29.46 15.25,-57.37 27.13,-83.72 12.15,-26.61 29.46,-50.91 51.68,-73.13 31.78,-32.82 68.48,-55.04 109.82,-66.93 41.61,-11.89 87.08,-17.83 136.44,-17.83l442.13 0 0 207.76 -298.97 0c-51.94,0 -89.41,9.82 -112.15,29.46 -22.48,19.64 -37.47,42.89 -44.45,69.77 -10.59,31.01 -16.02,67.19 -16.02,108.02 0,48.32 3.36,82.43 9.82,102.07 3.62,10.08 6.46,18.61 9.04,25.32 2.59,6.98 4.65,12.15 6.2,15.51 13.95,22.74 33.07,37.98 56.59,45.48 24.29,6.98 46.25,10.59 65.89,10.59l342.91 0 0 207.76 -917.33 0zm1894.87 -344.45c0,19.64 -0.78,41.08 -2.58,64.34 -1.81,23.26 -5.94,47.03 -12.66,71.32 -6.46,24.03 -16.28,47.8 -29.2,70.54 -12.66,23 -30.49,43.93 -53.23,62.54 -22.74,18.6 -47.8,33.07 -74.68,43.15 -27.13,10.07 -54.26,17.57 -81.4,22.22 -27.39,4.91 -53.75,7.75 -79.33,8.79 -25.32,1.03 -48.32,1.55 -68.48,1.55l-520.94 0 0 -207.76 190.96 0 -159.69 -877.54 303.37 0 159.95 871.34c16.02,-4.13 31.27,-9.82 45.22,-17.31 14.21,-7.76 27.13,-19.12 38.76,-34.89 9.04,-12.15 16.28,-24.81 21.44,-38.24 5.43,-13.44 9.3,-26.87 12.15,-40.57 2.84,-13.44 4.65,-26.87 5.43,-40.05 0.77,-13.18 1.03,-25.84 1.03,-37.98l0 -663.84 303.88 0 0 742.4zm-777.02 617.33l128.69 0c8.53,0 12.92,-2.84 12.92,-8.27 0,-4.13 -1.81,-6.46 -4.91,-7.23 -3.36,-0.78 -6.98,-2.33 -11.11,-4.91l-88.37 -26.36c-7.23,-2.59 -12.66,-5.43 -16.54,-8.79 -3.62,-3.36 -6.72,-6.46 -9.3,-9.56 -5.69,-6.98 -9.3,-15.5 -11.37,-25.32 -2.07,-9.82 -3.1,-18.87 -3.1,-27.39 0,-8.53 1.04,-17.31 2.59,-26.1 1.81,-8.78 6.2,-16.8 13.44,-23.77 3.87,-4.13 8.78,-7.5 14.21,-9.82 5.69,-2.59 14.21,-3.88 25.84,-3.88l152.2 0 0 60.47 -130.24 0c-2.07,2.07 -3.1,4.65 -3.1,7.49 0,3.1 2.07,5.69 6.2,7.75 3.87,2.07 8.01,3.36 12.15,4.39l79.33 22.22c5.69,2.33 11.11,4.39 16.8,5.94 5.43,1.55 10.33,5.17 14.21,10.59 8.78,8.53 13.69,18.09 14.73,28.17 1.29,10.08 2.07,19.38 2.07,27.91 0,7.24 -0.52,14.99 -1.29,23.77 -0.78,8.53 -3.88,16.28 -9.3,23.52 -7.24,9.04 -14.73,14.21 -23.26,15.76 -8.27,1.55 -16.8,2.32 -25.33,2.32l-158.14 0 0 -58.91zm898.99 -1358.17l303.88 0 0 1085.3 -303.88 0 0 -1085.3zm473.14 1165.92l365.64 0c8.01,0 16.8,0 26.36,0 10.07,0 20.15,-0.52 29.97,-1.81 9.82,-1.29 19.64,-3.36 29.2,-6.2 9.56,-2.84 18.09,-7.24 25.58,-13.18 19.9,-16.8 31.78,-36.69 36.43,-59.43l-262.8 0c-21.19,0 -42.89,-0.78 -65.38,-2.59 -22.48,-1.81 -44.44,-6.2 -65.89,-12.92 -21.45,-6.72 -41.86,-17.05 -61.24,-31.01 -19.38,-13.95 -36.69,-32.81 -51.94,-57.11 -22.74,-34.89 -39.02,-77.26 -48.84,-127.65 -9.82,-50.13 -14.73,-111.11 -14.73,-182.69 0,-39.8 1.55,-75.2 4.65,-105.94 2.84,-30.75 7.75,-58.14 14.73,-82.43 6.72,-24.29 15.24,-45.74 25.58,-65.12 10.33,-19.12 23.26,-37.21 38.24,-54.26 15.76,-18.35 32.04,-33.59 48.84,-46.26 17.06,-12.66 35.66,-23 56.33,-31.01 20.93,-8.01 43.67,-13.95 68.99,-17.57 25.33,-3.36 54.01,-5.17 86.31,-5.17l338.51 0c12.15,0 24.29,0.26 36.69,0.78 12.4,0.52 25.06,2.07 37.73,4.39 12.4,2.58 24.8,6.46 36.69,11.37 11.89,5.17 23,12.15 33.59,21.19 10.59,9.3 19.12,19.12 25.07,29.72 5.94,10.59 10.85,21.19 14.47,32.04 3.36,10.85 5.69,21.7 6.72,32.56 1.03,10.85 1.55,20.67 1.55,29.97l0 567.97c0,28.43 -0.78,54.78 -2.59,79.07 -1.81,24.55 -4.91,47.55 -9.56,69 -4.65,21.45 -11.11,41.6 -19.64,60.46 -8.53,18.87 -19.64,36.69 -33.33,53.23 -31.27,40.05 -72.09,67.96 -121.97,84.5 -50.13,16.28 -106.72,24.55 -169.77,24.55l-460.22 0 0 -198.45zm513.19 -617.07c0,-11.63 -1.29,-21.45 -4.13,-29.46 -2.84,-8.27 -9.3,-15.76 -19.38,-22.74 -8.52,-5.69 -16.54,-9.04 -24.29,-10.59 -7.5,-1.55 -15.5,-2.33 -24.03,-2.33l-34.11 0c-10.59,0 -21.45,0.26 -32.56,1.04 -11.11,0.78 -21.96,2.84 -32.56,5.69 -10.59,3.1 -20.67,7.75 -30.23,13.69 -9.56,5.94 -18.61,14.47 -26.61,25.07 -3.36,3.87 -7.24,9.56 -10.85,17.06 -3.88,7.23 -7.49,16.8 -10.59,28.68 -3.36,11.89 -5.94,26.36 -8.01,43.93 -2.07,17.31 -3.1,38.5 -3.1,63.05 0,71.58 11.11,118.87 33.33,141.61 9.56,11.11 20.42,19.64 32.3,25.32 11.63,5.94 23.77,9.82 36.18,12.15 12.4,2.32 24.81,3.62 37.21,3.87 12.4,0.26 23.77,0.26 34.37,0.26l87.08 0 0 -316.29zm1704.95 536.45l-703.38 0c-129.98,0 -215.63,-52.98 -258.66,-158.41 -16.15,-39.55 -27.13,-81.91 -31.27,-127.91 -3.87,-46 -5.94,-94.06 -5.94,-144.7 0,-50.91 3.1,-99.74 9.3,-146 5.94,-46 23.26,-88.89 51.43,-128.94 18.09,-25.07 38.5,-45.22 60.98,-60.47 22.48,-15.24 45.74,-26.87 70.03,-35.14 24.29,-8.53 48.32,-13.95 72.61,-16.28 24.29,-2.58 47.29,-3.88 68.99,-3.88l538 0 0 613.97 127.91 0 218.87 0c15.24,0 29.97,-0.53 44.19,-1.81 14.47,-1.3 28.17,-4.13 41.08,-8.53 12.67,-4.13 25.07,-10.08 36.7,-17.83 11.63,-7.49 22.22,-17.57 31.78,-30.23 9.04,-12.15 16.28,-24.81 21.44,-38.24 5.43,-13.44 9.3,-26.87 12.15,-40.57 2.84,-13.69 4.65,-27.13 5.43,-40.05 0.78,-13.18 1.04,-25.84 1.04,-37.98l0 -397.17 303.88 0 0 475.46c0,19.9 -0.78,41.34 -2.58,64.6 -1.81,23 -5.94,46.77 -12.66,71.06 -6.46,24.29 -16.28,47.81 -29.2,70.8 -12.66,23 -30.49,43.93 -53.23,62.54 -22.74,18.6 -47.8,33.07 -74.68,43.15 -27.13,10.07 -54.26,17.57 -81.4,22.22 -27.39,4.91 -53.75,7.75 -79.33,8.79 -25.32,1.03 -48.32,1.55 -68.48,1.55l-314.99 0zm-431.8 -209.31l0 -401.56 -133.59 0c-24.81,0 -45.22,5.17 -61.24,15.5 -15.76,10.34 -28.17,21.71 -36.7,34.37 -14.21,20.15 -23.26,44.19 -27.39,71.83 -1.81,13.7 -3.1,26.62 -3.62,39.02 -0.78,12.41 -1.03,24.29 -1.03,35.92 0,39.28 1.81,69.51 5.69,90.7 3.87,21.19 9.3,38.5 16.28,52.2 14.21,26.1 32.56,42.89 55.3,49.87 21.19,6.72 38.76,9.82 52.98,9.82l133.33 2.32zm-431.02 -694.59l0 -181.4 305.43 0 0 181.4 -305.43 0zm369 0l0 -181.4 303.88 0 0 181.4 -303.88 0zm906.48 1176.77l0 -181.4 305.43 0 0 181.4 -305.43 0zm-367.45 0l0 -181.4 303.88 0 0 181.4 -303.88 0zm1324.32 -272.87l-112.15 0c-20.16,0 -43.16,-0.51 -69,-1.55 -25.58,-1.03 -52.2,-3.88 -79.33,-8.79 -27.13,-4.65 -54.26,-12.15 -80.88,-22.22 -26.62,-10.08 -51.43,-24.55 -74.17,-43.15 -22.48,-18.09 -40.57,-38.76 -53.49,-62.02 -13.18,-23.26 -23,-47.03 -29.46,-71.06 -6.72,-24.29 -10.85,-48.06 -12.66,-71.58 -1.81,-23.52 -2.59,-44.7 -2.59,-64.08l0 -740.85 303.89 0 0 662.29c0,24.03 2.32,50.39 6.72,78.3 4.65,27.91 15.76,54.01 33.33,78.3 9.56,13.18 20.41,23.52 32.3,31.01 11.89,7.5 24.29,13.44 36.95,17.83 12.92,4.39 26.36,6.98 40.57,8.27 14.21,1.3 28.68,1.81 43.93,1.81l16.02 0 133.08 -0.26c-7.24,-27.39 -11.63,-57.11 -13.7,-89.41 -2.07,-32.3 -3.1,-66.67 -3.1,-102.85 0,-29.72 0.52,-59.95 1.81,-90.44 1.29,-30.49 4.91,-60.46 11.11,-89.67 5.94,-29.46 15.25,-57.37 27.13,-83.72 12.15,-26.61 29.46,-50.91 51.68,-73.13 31.78,-32.82 68.48,-55.04 109.82,-66.93 41.61,-11.89 87.08,-17.83 136.44,-17.83l442.13 0 0 207.76 -298.97 0c-51.94,0 -89.41,9.82 -112.15,29.46 -22.48,19.64 -37.47,42.89 -44.44,69.77 -10.59,31.01 -16.02,67.19 -16.02,108.02 0,48.32 3.36,82.43 9.82,102.07 3.62,10.08 6.46,18.61 9.05,25.32 2.58,6.98 4.65,12.15 6.2,15.51 13.95,22.74 33.07,37.98 56.59,45.48 24.29,6.98 46.25,10.59 65.89,10.59l342.9 0 0 207.76 -915.27 0zm1847.85 -207.76l9.04 0c15.25,0 29.98,-0.53 44.19,-1.81 14.47,-1.3 28.17,-4.13 41.09,-8.53 12.66,-4.13 25.06,-10.08 36.69,-17.57 11.63,-7.75 22.22,-17.83 31.78,-30.49 9.04,-12.15 16.28,-24.81 21.44,-38.24 5.43,-13.18 9.3,-26.87 12.15,-40.31 2.84,-13.7 4.65,-27.13 5.43,-40.31 0.78,-12.92 1.03,-25.58 1.03,-37.73l0 -662.55 303.89 0 0 551.18 0.77 111.37c0,12.15 0.26,24.81 1.04,37.73 0.78,13.18 2.58,26.61 5.43,40.31 2.84,13.44 6.72,27.13 12.15,40.31 5.17,13.44 12.4,26.1 21.45,38.24 9.56,12.66 20.15,22.74 31.78,30.49 11.63,7.49 24.03,13.44 37.21,17.57 13.18,4.39 26.62,7.24 40.83,8.53 14.13,1.28 0,0 44,1.55l0.45 0c15.24,0 29.97,-0.78 44.19,-2.07 14.47,-1.3 28.17,-3.88 41.09,-8.27 12.66,-4.39 25.07,-10.33 36.69,-17.83 11.63,-7.49 22.22,-17.57 31.78,-30.23 9.04,-12.15 16.28,-24.81 21.45,-38.24 5.43,-13.44 9.3,-26.87 12.15,-40.57 2.84,-13.44 4.65,-26.87 5.43,-40.06 0.78,-13.18 1.04,-25.58 1.04,-37.72l0 -662.29 303.88 0 0 740.85c0,19.89 -0.78,41.34 -2.58,64.34 -1.81,23.26 -5.94,47.03 -12.67,71.32 -6.46,24.03 -16.28,47.8 -29.2,70.54 -12.66,23 -30.49,43.93 -53.23,62.54 -22.74,18.6 -47.8,33.07 -74.68,43.15 -27.13,10.07 -54.27,17.57 -81.4,22.22 -27.39,4.91 -53.75,7.75 -79.33,8.79 -25.32,1.03 -48.32,1.55 -68.48,1.55l-104.4 0 -88.37 0c-16.8,0 -35.14,-0.26 -55.3,-0.78 -20.15,-0.52 -41.34,-2.07 -63.05,-4.65 -21.96,-2.33 -44.44,-6.46 -66.93,-11.89 -22.74,-5.69 -44.7,-13.7 -65.89,-24.29 -21.19,10.59 -42.89,18.61 -65.37,24.29 -22.48,5.43 -44.44,9.56 -66.15,11.89 -21.7,2.58 -42.63,4.13 -62.79,4.65 -20.15,0.52 -38.5,0.78 -55.3,0.78l-104.39 0 -877.54 0 0 -207.76 340.83 0c19.64,0 41.6,-3.62 65.89,-10.59 23.26,-7.49 42.12,-22.74 56.59,-45.48 4.65,-7.5 9.82,-21.19 15.24,-40.83 6.46,-19.64 9.82,-53.75 9.82,-102.07 0,-21.19 -1.03,-40.31 -3.1,-57.37 -1.81,-17.31 -5.43,-34.11 -10.59,-50.65 -8.01,-26.35 -23.26,-49.61 -46,-69.77 -22.22,-19.64 -59.18,-29.46 -110.6,-29.46l-301.3 0 0 -207.76 442.13 0c49.35,0 95.09,5.94 136.95,17.83 41.86,11.89 79.07,34.11 111.37,66.93 21.7,21.7 38.76,46 51.16,72.61 12.15,26.87 21.45,54.78 27.39,84.24 6.2,29.2 9.82,59.17 11.11,89.93 1.29,30.75 1.81,60.98 1.81,90.18 0,36.18 -1.29,70.54 -4.13,102.85 -2.84,32.3 -7.75,62.02 -14.73,89.41l102.2 0 -4.52 0zm2507.81 207.76l-883.48 0 0 -207.76 340.83 0c19.64,0 41.6,-3.62 65.89,-10.59 23.26,-7.49 42.12,-22.74 56.59,-45.48 4.65,-7.5 9.82,-21.19 15.24,-40.83 6.46,-19.64 9.82,-53.75 9.82,-102.07 0,-21.19 -1.04,-40.31 -3.1,-57.37 -1.81,-17.31 -5.43,-34.11 -10.59,-50.65 -8.01,-26.35 -23.26,-49.61 -46,-69.77 -22.22,-19.64 -59.17,-29.46 -110.6,-29.46l-301.3 0 0 -207.76 442.13 0c49.35,0 95.09,5.94 136.96,17.83 41.86,11.89 79.07,34.11 111.37,66.93 21.7,21.7 38.76,46 51.17,72.61 12.15,26.87 21.44,54.78 27.39,84.24 6.2,29.2 9.82,59.17 11.11,89.93 1.29,30.75 1.81,60.98 1.81,90.18 0,36.18 -1.29,70.54 -4.13,102.85 -2.84,32.3 -7.75,62.02 -14.73,89.41l103.62 0 231.01 0c15.25,0 29.98,-0.52 44.19,-1.81 14.47,-1.29 28.17,-4.13 41.09,-8.53 12.66,-4.13 25.06,-10.08 36.69,-17.83 11.63,-7.49 22.22,-17.57 31.78,-30.23 9.04,-12.15 16.28,-24.81 21.44,-38.24 5.43,-13.44 9.3,-26.87 12.15,-40.57 2.84,-13.69 4.65,-27.13 5.43,-40.05 0.78,-13.18 1.03,-25.84 1.03,-37.98l0 -397.17 303.88 0 0 475.46c0,19.9 -0.77,41.34 -2.58,64.6 -1.81,23 -5.94,46.77 -12.66,71.06 -6.46,24.29 -16.28,47.81 -29.2,70.8 -12.66,23 -30.49,43.93 -53.23,62.54 -22.74,18.6 -47.81,33.07 -74.68,43.15 -27.13,10.07 -54.26,17.57 -81.4,22.22 -27.39,4.91 -53.75,7.75 -79.33,8.79 -25.32,1.03 -48.32,1.55 -68.48,1.55l-327.14 0zm424.81 272.87l0 -181.4 305.43 0 0 181.4 -305.43 0zm-367.45 0l0 -181.4 303.88 0 0 181.4 -303.88 0zm812.16 -192.25l365.64 0c8.01,0 16.8,0 26.36,0 10.08,0 20.15,-0.52 29.98,-1.81 9.82,-1.29 19.64,-3.36 29.2,-6.2 9.56,-2.84 18.09,-7.24 25.58,-13.18 19.9,-16.8 31.78,-36.69 36.44,-59.43l-262.8 0c-21.19,0 -42.89,-0.78 -65.37,-2.59 -22.48,-1.81 -44.44,-6.2 -65.89,-12.92 -21.45,-6.72 -41.86,-17.05 -61.24,-31.01 -19.38,-13.95 -36.69,-32.81 -51.94,-57.11 -22.74,-34.89 -39.02,-77.26 -48.84,-127.65 -9.82,-50.13 -14.73,-111.11 -14.73,-182.69 0,-39.8 1.55,-75.2 4.65,-105.94 2.84,-30.75 7.75,-58.14 14.73,-82.43 6.72,-24.29 15.25,-45.74 25.58,-65.12 10.34,-19.12 23.26,-37.21 38.24,-54.26 15.76,-18.35 32.04,-33.59 48.84,-46.26 17.06,-12.66 35.66,-23 56.33,-31.01 20.93,-8.01 43.67,-13.95 69,-17.57 25.32,-3.36 54,-5.17 86.31,-5.17l338.51 0c12.15,0 24.29,0.26 36.69,0.78 12.41,0.52 25.07,2.07 37.73,4.39 12.4,2.58 24.81,6.46 36.69,11.37 11.89,5.17 23,12.15 33.59,21.19 10.59,9.3 19.12,19.12 25.06,29.72 5.94,10.59 10.85,21.19 14.47,32.04 3.36,10.85 5.69,21.7 6.72,32.56 1.04,10.85 1.55,20.67 1.55,29.97l0 567.97c0,28.43 -0.78,54.78 -2.58,79.07 -1.81,24.55 -4.91,47.55 -9.56,69 -4.65,21.45 -11.11,41.6 -19.64,60.46 -8.53,18.87 -19.64,36.69 -33.33,53.23 -31.27,40.05 -72.09,67.96 -121.97,84.5 -50.13,16.28 -106.72,24.55 -169.77,24.55l-460.22 0 0 -198.45zm513.19 -617.07c0,-11.63 -1.3,-21.45 -4.13,-29.46 -2.84,-8.27 -9.3,-15.76 -19.38,-22.74 -8.53,-5.69 -16.54,-9.04 -24.29,-10.59 -7.49,-1.55 -15.5,-2.33 -24.03,-2.33l-34.11 0c-10.59,0 -21.44,0.26 -32.56,1.04 -11.11,0.78 -21.96,2.84 -32.56,5.69 -10.59,3.1 -20.67,7.75 -30.24,13.69 -9.56,5.94 -18.6,14.47 -26.61,25.07 -3.36,3.87 -7.24,9.56 -10.85,17.06 -3.87,7.23 -7.49,16.8 -10.59,28.68 -3.36,11.89 -5.94,26.36 -8.01,43.93 -2.07,17.31 -3.1,38.5 -3.1,63.05 0,71.58 11.11,118.87 33.33,141.61 9.56,11.11 20.41,19.64 32.3,25.32 11.63,5.94 23.78,9.82 36.18,12.15 12.4,2.32 24.81,3.62 37.21,3.87 12.41,0.26 23.78,0.26 34.37,0.26l87.08 0 0 -316.29zm381.4 604.15c22.48,0.52 42.38,0.26 59.43,-0.78 16.8,-0.78 31.27,-2.58 43.41,-5.17 25.32,-5.69 47.8,-16.54 67.44,-32.56 19.64,-16.28 34.88,-35.4 45.48,-57.62 11.11,-22.22 16.54,-55.3 16.54,-99.23l0 -694.07 303.88 0 0 757.9c0,18.09 -1.03,39.02 -3.36,62.79 -2.33,23.77 -7.49,47.8 -16.02,72.35 -8.27,24.29 -20.16,48.32 -35.92,71.83 -15.5,23.52 -36.95,43.67 -64.08,60.98 -38.76,26.1 -90.96,43.15 -156.59,50.65 -32.81,4.13 -70.8,6.72 -113.95,8.01 -43.15,1.29 -91.74,1.29 -146.26,0.26l0 -195.35z"/>
     </g>
     <path class="fil2" d="M4880.17 7010.63l274.29 385.56 -117.52 -0.22 -260.7 -377.36 -24.15 -0.22 0 377.79 -97.04 0 0 -862.97 139.73 0c50.03,0 90.78,3.45 122.26,10.35 31.48,6.9 60.81,19.62 87.98,38.17 27.17,18.54 49.38,44.85 66.63,78.92 17.25,34.07 25.87,70.94 25.87,110.62 0,68.14 -19.41,123.34 -58.22,165.61 -38.81,42.26 -91.86,66.85 -159.14,73.74zm-128.09 -76.33l60.81 0c126.79,0 190.19,-54.12 190.19,-162.37 0,-99.62 -64.69,-149.44 -194.07,-149.44l-56.93 0 0 311.81zm938.01 -415.31c122.48,0 227.71,43.56 315.69,130.46 87.98,87.11 131.97,192.13 131.97,315.26 0,121.4 -43.99,225.98 -131.97,313.96 -87.98,87.76 -193.21,131.76 -315.69,131.76 -125.93,0 -232.45,-43.56 -319.57,-130.46 -87.11,-87.11 -130.67,-193.85 -130.67,-320.43 0,-118.81 44.64,-221.89 133.91,-309.44 89.27,-87.33 194.72,-131.11 316.33,-131.11zm-1.3 90.57c-95.74,0 -178.33,34.29 -247.76,102.64 -69.44,68.57 -104.15,150.94 -104.15,247.33 0,100.7 34.07,185.87 102.21,255.74 68.14,69.65 151.37,104.58 249.7,104.58 97.47,0 180.49,-34.72 249.06,-103.94 68.57,-69.43 102.86,-152.67 102.86,-249.92 0,-98.98 -34.29,-183.07 -102.86,-252.51 -68.57,-69.22 -151.59,-103.94 -249.06,-103.94zm601.62 -76.33l229.86 648.2 270.84 -692.61 255.09 691.97 253.58 -647.33 104.58 -0.22 -360.76 906.09 -255.09 -688.09 -271.91 688.09 -331 -906.09 104.8 0zm1644.85 618.44l-368.3 0 -103.29 244.53 -104.58 0 397.2 -903.51 388.14 903.51 -106.95 0.43 -102.21 -244.96zm-37.09 -89.27l-143.61 -343.93 -147.06 343.93 290.67 0zm463.61 -529.17l0 862.97 -97.04 0 0 -862.97 97.04 0zm223.83 862.97l0 -862.97 177.25 0c132.83,0 243.67,37.09 332.51,111.27 88.84,74.18 133.26,181.56 133.26,322.16 0,136.28 -35.8,234.18 -107.39,293.69 -71.59,59.52 -131.97,97.04 -181.13,112.56 -49.17,15.53 -108.68,23.29 -178.54,23.29l-175.96 0zm97.04 -89.27l84.09 0c110.41,0 198.81,-31.05 265.23,-93.16 66.42,-62.1 99.63,-144.91 99.63,-248.41 0,-104.37 -33.21,-187.6 -99.63,-249.7 -66.41,-62.11 -154.82,-93.16 -265.23,-93.16l-84.09 0 0 684.43zm1437.41 -684.43l-294.99 0 0 257.47 285.93 0 0 89.27 -285.93 0 0 426.96 -97.04 0 0 -862.97 392.02 0 0 89.27zm570.57 -103.5c122.48,0 227.71,43.56 315.69,130.46 87.98,87.11 131.96,192.13 131.96,315.26 0,121.4 -43.99,225.98 -131.96,313.96 -87.98,87.76 -193.21,131.76 -315.69,131.76 -125.93,0 -232.45,-43.56 -319.57,-130.46 -87.11,-87.11 -130.67,-193.85 -130.67,-320.43 0,-118.81 44.64,-221.89 133.91,-309.44 89.27,-87.33 194.72,-131.11 316.33,-131.11zm-1.3 90.57c-95.74,0 -178.33,34.29 -247.76,102.64 -69.43,68.57 -104.15,150.94 -104.15,247.33 0,100.7 34.07,185.87 102.21,255.74 68.14,69.65 151.38,104.58 249.7,104.58 97.47,0 180.49,-34.72 249.06,-103.94 68.57,-69.43 102.85,-152.67 102.85,-249.92 0,-98.98 -34.28,-183.07 -102.85,-252.51 -68.57,-69.22 -151.59,-103.94 -249.06,-103.94zm851.32 401.08l274.29 385.56 -117.52 -0.22 -260.7 -377.36 -24.15 -0.22 0 377.79 -97.04 0 0 -862.97 139.73 0c50.03,0 90.78,3.45 122.26,10.35 31.48,6.9 60.81,19.62 87.98,38.17 27.17,18.54 49.38,44.85 66.63,78.92 17.25,34.07 25.87,70.94 25.87,110.62 0,68.14 -19.41,123.34 -58.22,165.61 -38.81,42.26 -91.86,66.85 -159.14,73.74zm-128.09 -76.33l60.81 0c126.8,0 190.19,-54.12 190.19,-162.37 0,-99.62 -64.69,-149.44 -194.07,-149.44l-56.93 0 0 311.81zm1348.57 217.36l-368.3 0 -103.29 244.53 -104.58 0 397.2 -903.51 388.14 903.51 -106.96 0.43 -102.21 -244.96zm-37.09 -89.27l-143.61 -343.93 -147.06 343.93 290.67 0zm366.58 333.8l0 -862.97 177.25 0c132.83,0 243.67,37.09 332.5,111.27 88.84,74.18 133.26,181.56 133.26,322.16 0,136.28 -35.8,234.18 -107.39,293.69 -71.59,59.52 -131.97,97.04 -181.13,112.56 -49.17,15.53 -108.68,23.29 -178.54,23.29l-175.96 0zm97.04 -89.27l84.09 0c110.41,0 198.81,-31.05 265.23,-93.16 66.41,-62.1 99.62,-144.91 99.62,-248.41 0,-104.37 -33.21,-187.6 -99.62,-249.7 -66.42,-62.11 -154.83,-93.16 -265.23,-93.16l-84.09 0 0 684.43zm697.79 -773.91l245.82 656.6 243.45 -656.17 104.8 -0.22 -351.27 913.21 -349.33 -913.21 106.52 -0.21zm1160.11 89.48l-349.33 0 0 257.47 340.27 0 0 89.27 -340.27 0 0 337.69 349.33 0 0 89.27 -446.36 0 0 -862.97 446.36 0 0 89.27zm402.37 388.14l274.29 385.56 -117.52 -0.22 -260.7 -377.36 -24.15 -0.22 0 377.79 -97.04 0 0 -862.97 139.73 0c50.03,0 90.78,3.45 122.26,10.35 31.48,6.9 60.81,19.62 87.98,38.17 27.17,18.54 49.38,44.85 66.63,78.92 17.25,34.07 25.87,70.94 25.87,110.62 0,68.14 -19.41,123.34 -58.22,165.61 -38.81,42.26 -91.86,66.85 -159.14,73.74zm-128.09 -76.33l60.81 0c126.8,0 190.19,-54.12 190.19,-162.37 0,-99.62 -64.69,-149.44 -194.07,-149.44l-56.93 0 0 311.81zm751.7 -311.81l0 773.7 -97.04 0 0 -773.7 -208.3 0 0 -89.27 514.93 0 0 89.27 -209.59 0zm437.3 -89.27l0 862.97 -97.04 0 0 -862.97 97.04 0zm684.42 120.32l-76.33 49.17c-21.56,-34.5 -43.34,-58.65 -65.33,-72.45 -22,-13.8 -49.81,-20.7 -83.45,-20.7 -40.54,0 -74.39,12.72 -101.56,38.17 -27.17,25.44 -40.76,56.93 -40.76,94.88 0,37.09 11.65,63.61 34.93,79.35 23.29,15.96 39.25,26.52 47.87,31.7 8.63,5.18 21.57,11.21 38.81,18.11l27.17 12.94 27.17 11.65 27.17 11.64c130.24,56.71 195.36,135.63 195.36,236.33 0,74.83 -26.09,138.01 -78.28,189.33 -52.18,51.11 -116.66,76.77 -193.42,76.77 -69.87,0 -127.66,-18.98 -173.37,-56.71 -45.71,-37.74 -77.2,-92.51 -94.45,-164.74l93.15 -25.66c23.29,104.37 81.08,156.55 173.37,156.55 50.03,0 91.86,-15.96 125.5,-47.87 33.64,-31.7 50.46,-72.24 50.46,-121.4 0,-52.4 -17.46,-89.7 -52.4,-111.7 -34.93,-21.99 -66.2,-38.6 -93.8,-49.81l-25.88 -12.72 -25.87 -11.65 -25.88 -11.65c-62.1,-27.6 -106.74,-58 -133.91,-91.21 -27.17,-32.99 -40.75,-73.74 -40.75,-122.05 0,-62.75 23.07,-115.37 69.22,-157.41 46.15,-42.26 103.72,-63.4 172.72,-63.4 96.6,0 170.78,44.85 222.53,134.56zm305.34 -120.32l0 862.97 -97.04 0 0 -862.97 97.04 0zm223.83 862.97l0 -899.63 671.48 705.56 0 -668.9 97.04 0 0 902.21 -671.48 -703.61 0 664.37 -97.04 0zm1443.89 -432.13l359.68 0 0 21.99c0,49.81 -3.88,92.29 -11.65,127.66 -7.76,35.36 -25.02,75.69 -51.75,121.19 -26.74,45.71 -72.67,86.25 -137.79,122.05 -65.12,35.58 -134.34,53.48 -207.65,53.48 -120.76,0 -224.69,-43.56 -311.81,-130.68 -87.12,-87.11 -130.67,-191.48 -130.67,-313.1 0,-125.93 43.99,-232.02 131.97,-318.28 87.98,-86.25 195.8,-129.38 323.45,-129.38 70.73,0 134.13,14.67 190.19,44.2 56.06,29.54 112.13,77.63 168.19,144.26l-71.16 65.12c-81.08,-108.68 -176.82,-163.02 -287.22,-163.02 -100.06,0 -184.8,34.29 -254.23,102.86 -69.43,68.57 -104.15,153.31 -104.15,254.23 0,97.46 34.07,180.7 102.21,249.7 68.14,69 150.94,103.5 248.41,103.5 52.61,0 103.29,-13.59 152.02,-40.54 48.73,-27.17 82.8,-56.28 102.21,-87.55 19.41,-31.27 31.91,-55.85 37.52,-73.31 5.61,-17.69 8.41,-39.46 8.41,-65.12l-256.17 0 0 -89.27z"/>
    </g>
   </g>
  </g>
 </g>
</svg>
